PathFileType	4	(X/Y/Z)	C:/Users/beibeiliu/ov580/test_trc\sequence.25_training_dense_right.trc
DataRate	CameraRate	NumFrames	NumMarkers	Units	OrigDataRate	OrigDataStartFrame	OrigNumFrames
120	120	12	19	mm	120	1	84
Frame#	Time	ThumbCMC			ThumbMCP			ThumbIP			ThumbTip			IndexMCP			IndexPIP			IndexTip			MiddleMCP			MiddlePIP			MiddleTip			RingMCP			RingPIP			RingTip			PinkyMCP			PinkyPIP			PinkyTip			BackHand1			BackHand2			BackHand3	
		X0	Y0	Z0	X1	Y1	Z1	X2	Y2	Z2	X3	Y3	Z3	X4	Y4	Z4	X5	Y5	Z5	X6	Y6	Z6	X7	Y7	Z7	X8	Y8	Z8	X9	Y9	Z9	X10	Y10	Z10	X11	Y11	Z11	X12	Y12	Z12	X13	Y13	Z13	X14	Y14	Z14	X15	Y15	Z15	X16	Y16	Z16	X17	Y17	Z17	X18	Y18	Z18	
0	0	60.2485	43.1368	38.9096	39.547	26.7305	18.8734	34.3033	17.8565	-3.88539	32.2018	9.34687	-22.4979	57.9684	49.87	-28.7096	51.5942	36.1166	-52.305	43.1705	23.4435	-66.6528	81.4315	46.443	-37.1091	73.8825	36.131	-60.031	72.4558	17.2272	-80.909	97.4228	39.0318	-33.1172	94.2748	28.5409	-54.9643	92.272	15.1853	-73.6124	114.856	31.7314	-22.6205	117.044	22.6165	-39.8102	119.368	14.7057	-55.0391	103.255	55.4387	10.7257	106.048	61.546	37.79	79.9236	64.0851	27.4192	
1	0.00833333	56.1043	44.7702	33.4498	42.3004	28.5975	19.3054	34.2527	19.4417	-5.5249	27.387	8.71052	-20.5289	56.565	50.7035	-29.1636	48.144	39.4086	-53.13	45.1067	21.6058	-69.8579	76.4246	48.1333	-36.3971	71.1032	35.0308	-63.6865	70.1919	17.7419	-83.112	93.3346	40.5289	-35.7606	97.3308	29.5602	-53.0778	89.1565	16.2987	-73.2831	112.712	33.2015	-22.1674	115.939	23.752	-41.3531	113.599	15.489	-58.6202	101.294	56.3064	10.1438	104.487	62.0181	36.5298	77.3772	66.653	23.4355	
2	0.0166667	54.4517	45.2462	38.1448	41.6445	28.7404	16.243	31.7538	19.3402	-5.03691	29.1021	10.4626	-22.2301	55.7453	51.126	-30.2955	46.8642	42.022	-50.4963	45.0235	25.0225	-68.7262	74.6182	47.3804	-41.9634	69.7285	36.0858	-63.9273	69.1436	17.3531	-84.5643	95.254	40.5541	-35.2157	92.3122	30.778	-53.2402	89.0479	16.1785	-72.249	111.96	34.5341	-24.649	114.649	24.4765	-39.1513	113.881	18.2253	-55.708	100.908	57.1239	8.15709	106.027	63.1228	32.5639	78.4856	67.4984	23.852	
3	0.025	52.6484	44.171	35.0185	38.4696	27.6548	18.6313	31.711	19.0004	-6.88025	26.593	8.43462	-23.6913	52.7933	50.647	-28.7179	45.251	37.7697	-53.7803	44.6772	22.8254	-70.2336	77.8769	46.4309	-40.7534	72.4001	33.5905	-65.3246	70.7496	16.6673	-83.274	92.7332	40.3169	-37.5737	92.0201	28.0227	-57.6124	86.7132	14.9143	-72.9844	111.019	33.9167	-24.1409	112.487	24.927	-38.1913	113.618	15.0737	-59.6342	97.6531	58.5186	7.81587	104.09	60.5203	35.1198	73.4443	65.7631	20.6488	
4	0.0333333	51.152	44.4873	33.4504	38.9708	28.3191	16.7615	30.6292	20.1531	-6.4143	27.043	10.1968	-25.5887	53.3755	50.3059	-33.0109	44.8674	40.7194	-52.1781	44.3358	23.0201	-69.6686	73.0566	48.7447	-37.6327	69.1352	33.8684	-65.1949	66.5416	18.6165	-82.5931	91.9531	41.0944	-33.1109	87.9071	28.6238	-58.4777	84.9258	14.5727	-75.339	111.81	33.7798	-22.3552	111.558	23.8182	-44.0885	110.78	13.131	-60.4625	98.3563	57.3738	10.591	106.804	61.2718	34.1553	79.0016	64.6332	23.4874	
5	0.0416667	51.9827	46.191	31.5796	40.8309	32.2893	14.4015	32.3301	25.3488	-4.37286	26.5095	18.0784	-24.6582	51.121	55.9735	-31.3342	49.0025	44.1133	-55.646	38.212	24.3955	-70.8509	75.3835	53.916	-38.5867	71.4545	41.7164	-64.6521	64.4701	21.9097	-80.6454	90.3195	46.8482	-37.3576	90.4162	35.468	-58.2825	80.7215	19.7246	-71.4919	112.635	37.6429	-27.1929	109.544	30.8747	-43.6012	107.704	14.7528	-63.9277	102.181	58.4342	7.06593	103.801	61.7334	31.7884	78.3715	66.87	19.8868	
6	0.05	54.5614	50.2133	31.8133	36.9212	40.0049	14.4768	26.4838	36.4918	-8.74094	21.2539	30.0999	-27.3577	53.6559	66.1517	-31.1868	44.9082	54.7299	-56.061	44.8162	30.3815	-66.5379	73.0069	65.2967	-38.7616	68.4174	51.572	-64.9028	62.1941	23.5646	-74.0399	94.6084	57.1548	-37.4948	89.6473	44.3913	-59.4982	79.4515	23.5337	-67.5937	109.592	47.3858	-25.0748	109.409	35.9007	-47.7471	97.675	18.3926	-61.3154	99.7067	65.0781	11.2723	102.264	64.7459	35.2599	76.7791	71.2402	22.2409	
7	0.0583333	53.2501	52.4798	35.6816	36.7033	46.7345	13.0901	26.7019	46.3812	-8.67502	20.0201	44.2054	-30.6715	52.8673	76.8585	-30.0546	48.9902	61.5602	-56.0084	43.6833	33.2458	-57.0312	74.7185	73.0855	-39.8033	67.3528	57.2379	-63.9787	62.5126	23.9655	-58.7717	94.1435	64.7654	-37.9504	87.1585	49.5233	-59.0977	72.9987	28.5983	-56.9163	108.699	55.4016	-24.2222	103.997	47.6555	-46.9461	90.0153	24.9237	-55.231	98.5314	71.0867	8.26468	103.186	66.9971	37.8036	75.1285	75.3781	27.1099	
8	0.0666667	54.7727	55.5368	29.8832	35.8717	50.6971	12.0691	28.1772	52.946	-8.35955	19.6538	52.6675	-29.8746	54.8629	81.6775	-30.8139	47.8592	67.8641	-54.4193	46.0522	41.0839	-48.1756	74.6681	78.5401	-38.41	65.9375	57.4699	-61.2486	61.14	34.219	-48.4218	90.3405	70.6782	-34.0022	82.43	55.2879	-55.5319	72.5074	29.0149	-43.1014	107.657	61.01	-27.2114	96.6522	51.0652	-47.6203	87.0508	29.1792	-46.2142	102.539	72.4546	9.43661	105.216	66.8448	34.2098	78.1473	74.9374	27.7064	
9	0.075	52.0496	55.4801	33.6938	35.058	53.6758	9.52896	26.7799	58.113	-10.0885	20.6647	61.0311	-33.5818	56.4526	85.3233	-30.9417	46.0776	72.0421	-51.3989	46.6138	43.8963	-35.9356	69.8151	82.5536	-40.5461	63.8762	58.1038	-57.7689	60.2771	38.194	-37.4662	90.1012	73.375	-35.3481	79.3986	56.2865	-53.4488	71.9396	35.0574	-35.0555	108.036	64.1056	-29.4437	94.5542	52.7255	-47.6797	80.0253	33.8123	-38.123	97.1263	72.3128	12.2149	104.067	66.7669	32.8709	79.8761	77.0825	28.9605	
10	0.0833333	53.7629	57.5847	29.3912	32.8264	57.4576	6.39789	24.8173	60.7865	-14.6112	24.4503	64.2364	-37.6558	53.5544	87.2086	-27.8446	44.9314	67.3223	-50.0471	49.7539	45.7998	-33.1911	71.0793	81.9369	-40.6574	65.9154	59.5736	-57.4082	63.5356	41.2659	-30.8741	89.4735	74.4441	-40.1849	78.8672	54.6912	-52.6222	73.1973	37.6771	-30.1951	106.918	65.0515	-31.2907	92.2143	52.8722	-46.7763	79.2824	33.5078	-30.1099	97.2219	73.8043	13.4642	102.866	67.4324	36.9292	77.6422	75.6031	28.4191	
11	0.0916667	52.0854	54.1024	31.3532	38.3195	56.9416	6.37645	28.4473	64.5624	-19.2311	27.2357	67.316	-42.1866	51.5902	86.5722	-31.1641	47.8357	65.8369	-50.0964	49.6263	46.778	-26.8864	69.3389	82.5361	-37.5396	64.5424	57.0763	-55.6447	61.2458	41.8401	-27.9246	89.0965	75.2753	-39.7507	80.2952	53.8071	-51.7478	73.9741	39.9696	-26.0409	101.281	67.5509	-33.2264	90.9321	49.7294	-46.6099	82.4361	33.583	-28.8541	98.5234	76.3101	8.37167	101.283	66.9775	34.9809	72.7648	77.816	25.2579	
